<svg width="93" height="132" viewBox="0 0 93 132" fill="none" xmlns="http://www.w3.org/2000/svg">
<path d="M0.78 112.68V111.74H10.86L11 115.24H9.6L9.18 112.8H5.12C5.10667 113.64 5.09333 114.48 5.08 115.32C5.08 116.147 5.08 116.927 5.08 117.66H7.66L7.92 115.92H8.96V120.44H7.92L7.68 118.72H5.08C5.08 119.68 5.08 120.587 5.08 121.44C5.09333 122.28 5.10667 123.113 5.12 123.94H9.58L10 121.5H11.4L11.26 125H0.78V124.06L2.46 123.88C2.48667 123.053 2.5 122.213 2.5 121.36C2.5 120.507 2.5 119.653 2.5 118.8V117.94C2.5 117.1 2.5 116.26 2.5 115.42C2.5 114.567 2.48667 113.713 2.46 112.86L0.78 112.68ZM20.2727 125.24C19.7393 125.24 19.306 125.107 18.9727 124.84C18.6393 124.573 18.4127 124.207 18.2927 123.74C17.7993 124.247 17.3527 124.633 16.9527 124.9C16.5527 125.153 16.0327 125.28 15.3927 125.28C14.646 125.28 14.0127 125.067 13.4927 124.64C12.986 124.2 12.7327 123.573 12.7327 122.76C12.7327 122.333 12.8327 121.94 13.0327 121.58C13.2327 121.207 13.586 120.86 14.0927 120.54C14.6127 120.22 15.3527 119.907 16.3127 119.6C16.5793 119.507 16.8793 119.413 17.2127 119.32C17.546 119.227 17.886 119.133 18.2327 119.04V118.48C18.2327 117.547 18.0993 116.92 17.8327 116.6C17.5793 116.267 17.126 116.1 16.4727 116.1C16.3527 116.1 16.2193 116.107 16.0727 116.12C15.9393 116.133 15.7993 116.153 15.6527 116.18L15.4127 117.28C15.3593 117.76 15.2193 118.113 14.9927 118.34C14.766 118.567 14.486 118.68 14.1527 118.68C13.5127 118.68 13.1393 118.38 13.0327 117.78C13.1527 116.98 13.5793 116.34 14.3127 115.86C15.0593 115.38 16.0393 115.14 17.2527 115.14C18.4127 115.14 19.2593 115.42 19.7927 115.98C20.326 116.527 20.5927 117.453 20.5927 118.76V123.12C20.5927 123.72 20.786 124.02 21.1727 124.02C21.426 124.02 21.6593 123.873 21.8727 123.58L22.3327 123.98C22.0927 124.433 21.806 124.76 21.4727 124.96C21.1527 125.147 20.7527 125.24 20.2727 125.24ZM15.0727 122.34C15.0727 122.86 15.206 123.24 15.4727 123.48C15.7527 123.707 16.0927 123.82 16.4927 123.82C16.7193 123.82 16.946 123.767 17.1727 123.66C17.3993 123.553 17.7527 123.333 18.2327 123V119.84C17.9527 119.933 17.686 120.02 17.4327 120.1C17.1927 120.18 16.986 120.253 16.8127 120.32C16.146 120.587 15.686 120.893 15.4327 121.24C15.1927 121.587 15.0727 121.953 15.0727 122.34ZM26.4033 125.28C25.7899 125.28 25.2233 125.207 24.7033 125.06C24.1966 124.927 23.6899 124.72 23.1833 124.44L23.1633 122.12H24.5033L24.8633 123.98C25.3433 124.18 25.8633 124.28 26.4233 124.28C27.1033 124.28 27.6099 124.16 27.9433 123.92C28.2766 123.68 28.4433 123.347 28.4433 122.92C28.4433 122.547 28.3099 122.247 28.0433 122.02C27.7766 121.78 27.3233 121.553 26.6833 121.34L25.6833 121C24.9366 120.76 24.3433 120.407 23.9033 119.94C23.4766 119.473 23.2633 118.887 23.2633 118.18C23.2633 117.62 23.4099 117.113 23.7033 116.66C23.9966 116.193 24.4233 115.827 24.9833 115.56C25.5566 115.28 26.2499 115.14 27.0633 115.14C27.6366 115.14 28.1566 115.213 28.6233 115.36C29.1033 115.493 29.5766 115.693 30.0433 115.96L29.9433 118.06H28.6233L28.2633 116.38C27.8899 116.22 27.4766 116.14 27.0233 116.14C26.4899 116.14 26.0766 116.253 25.7833 116.48C25.4899 116.707 25.3433 117.013 25.3433 117.4C25.3433 117.76 25.4633 118.053 25.7033 118.28C25.9566 118.493 26.4233 118.713 27.1033 118.94L27.9033 119.18C28.8766 119.513 29.5699 119.927 29.9833 120.42C30.3966 120.913 30.6033 121.507 30.6033 122.2C30.6033 123.093 30.2366 123.833 29.5033 124.42C28.7833 124.993 27.7499 125.28 26.4033 125.28ZM37.7519 116.22V115.42H41.5919V116.22L40.4719 116.44L37.0519 125.36C36.4785 126.893 35.8985 128.027 35.3119 128.76C34.7252 129.493 33.9985 129.86 33.1319 129.86C32.6119 129.86 32.1585 129.727 31.7719 129.46C31.3985 129.193 31.1985 128.86 31.1719 128.46C31.2519 128.1 31.4319 127.827 31.7119 127.64C32.0052 127.467 32.3252 127.38 32.6719 127.38C32.9385 127.38 33.1985 127.433 33.4519 127.54C33.7185 127.66 33.9852 127.887 34.2519 128.22L34.3719 128.38C34.7319 128.033 35.0452 127.633 35.3119 127.18C35.5785 126.74 35.7985 126.267 35.9719 125.76L36.0119 125.64L32.2119 116.38L31.1919 116.22V115.42H36.4319V116.22L34.8519 116.44L37.0919 122.56L39.2719 116.46L37.7519 116.22Z" fill="#4C3BCF"/>
<path d="M46.4025 125.34C45.6558 125.34 44.9158 125.247 44.1825 125.06C43.4492 124.873 42.8225 124.613 42.3025 124.28L42.4225 121.4H43.9625L44.3625 123.82C44.6692 123.953 44.9825 124.06 45.3025 124.14C45.6225 124.207 45.9825 124.24 46.3825 124.24C47.2092 124.24 47.8558 124.047 48.3225 123.66C48.8025 123.26 49.0425 122.733 49.0425 122.08C49.0425 121.493 48.8758 121.033 48.5425 120.7C48.2092 120.367 47.6758 120.053 46.9425 119.76L46.1225 119.42C45.0292 118.953 44.1558 118.393 43.5025 117.74C42.8625 117.087 42.5425 116.233 42.5425 115.18C42.5425 114.393 42.7425 113.72 43.1425 113.16C43.5425 112.587 44.0958 112.153 44.8025 111.86C45.5225 111.553 46.3492 111.4 47.2825 111.4C47.9758 111.4 48.6225 111.493 49.2225 111.68C49.8225 111.867 50.3492 112.12 50.8025 112.44L50.6625 115.14H49.1425L48.7425 112.82C48.2758 112.607 47.7758 112.5 47.2425 112.5C46.5758 112.5 46.0092 112.68 45.5425 113.04C45.0758 113.387 44.8425 113.887 44.8425 114.54C44.8425 115.113 45.0225 115.58 45.3825 115.94C45.7425 116.3 46.2492 116.613 46.9025 116.88L47.7625 117.24C49.0692 117.787 49.9958 118.373 50.5425 119C51.1025 119.627 51.3825 120.433 51.3825 121.42C51.3825 122.593 50.9358 123.54 50.0425 124.26C49.1625 124.98 47.9492 125.34 46.4025 125.34ZM57.5298 125.28C56.6232 125.28 55.8098 125.087 55.0898 124.7C54.3698 124.3 53.8032 123.727 53.3898 122.98C52.9898 122.22 52.7898 121.307 52.7898 120.24C52.7898 119.16 53.0165 118.24 53.4698 117.48C53.9365 116.72 54.5498 116.14 55.3098 115.74C56.0698 115.34 56.8965 115.14 57.7898 115.14C58.4432 115.14 59.0298 115.267 59.5498 115.52C60.0832 115.76 60.5098 116.087 60.8298 116.5C61.1632 116.913 61.3632 117.38 61.4298 117.9C61.2698 118.487 60.8898 118.78 60.2898 118.78C59.5432 118.78 59.1098 118.313 58.9898 117.38L58.7298 116.18C58.6098 116.153 58.4898 116.133 58.3698 116.12C58.2498 116.107 58.1298 116.1 58.0098 116.1C57.5298 116.1 57.0832 116.24 56.6698 116.52C56.2698 116.787 55.9432 117.207 55.6898 117.78C55.4365 118.353 55.3098 119.08 55.3098 119.96C55.3098 121.173 55.5832 122.1 56.1298 122.74C56.6898 123.38 57.4165 123.7 58.3098 123.7C58.8432 123.7 59.3232 123.58 59.7498 123.34C60.1765 123.1 60.5365 122.773 60.8298 122.36L61.4298 122.8C61.0965 123.613 60.5965 124.233 59.9298 124.66C59.2765 125.073 58.4765 125.28 57.5298 125.28ZM67.5717 125.28C66.6651 125.28 65.8451 125.08 65.1117 124.68C64.3917 124.28 63.8184 123.7 63.3917 122.94C62.9651 122.18 62.7517 121.273 62.7517 120.22C62.7517 119.153 62.9717 118.24 63.4117 117.48C63.8651 116.72 64.4584 116.14 65.1917 115.74C65.9251 115.34 66.7184 115.14 67.5717 115.14C68.4251 115.14 69.2184 115.34 69.9517 115.74C70.6851 116.14 71.2784 116.72 71.7317 117.48C72.1851 118.227 72.4117 119.14 72.4117 120.22C72.4117 121.287 72.1917 122.2 71.7517 122.96C71.3251 123.707 70.7451 124.28 70.0117 124.68C69.2917 125.08 68.4784 125.28 67.5717 125.28ZM67.5717 124.3C68.2917 124.3 68.8384 123.967 69.2117 123.3C69.5984 122.633 69.7917 121.613 69.7917 120.24C69.7917 117.493 69.0517 116.12 67.5717 116.12C66.1051 116.12 65.3717 117.493 65.3717 120.24C65.3717 121.613 65.5584 122.633 65.9317 123.3C66.3051 123.967 66.8517 124.3 67.5717 124.3ZM73.8445 125V124.18L75.1245 123.94C75.1379 123.433 75.1445 122.893 75.1445 122.32C75.1445 121.733 75.1445 121.227 75.1445 120.8V119.74C75.1445 119.193 75.1379 118.76 75.1245 118.44C75.1245 118.107 75.1112 117.74 75.0845 117.34L73.6845 117.16V116.4L77.0245 115.14L77.3445 115.34L77.5445 117.7C77.8512 116.873 78.2645 116.24 78.7845 115.8C79.3045 115.36 79.8245 115.14 80.3445 115.14C80.7045 115.14 81.0312 115.233 81.3245 115.42C81.6312 115.607 81.8312 115.873 81.9245 116.22C81.9112 116.713 81.7912 117.1 81.5645 117.38C81.3379 117.647 81.0245 117.78 80.6245 117.78C80.1445 117.78 79.6912 117.54 79.2645 117.06L79.0845 116.86C78.3779 117.447 77.8712 118.273 77.5645 119.34V120.8C77.5645 121.213 77.5645 121.707 77.5645 122.28C77.5645 122.84 77.5712 123.367 77.5845 123.86L79.2245 124.18V125H73.8445ZM87.1983 116.1C86.8783 116.1 86.5583 116.207 86.2383 116.42C85.9316 116.62 85.6649 116.953 85.4383 117.42C85.2249 117.887 85.0916 118.52 85.0383 119.32H87.7783C88.2583 119.32 88.5783 119.22 88.7383 119.02C88.8983 118.82 88.9783 118.54 88.9783 118.18C88.9783 117.567 88.8049 117.067 88.4583 116.68C88.1116 116.293 87.6916 116.1 87.1983 116.1ZM87.1983 125.28C86.2649 125.28 85.4449 125.08 84.7383 124.68C84.0316 124.28 83.4783 123.707 83.0783 122.96C82.6783 122.2 82.4783 121.3 82.4783 120.26C82.4783 119.193 82.7049 118.28 83.1583 117.52C83.6249 116.747 84.2249 116.16 84.9583 115.76C85.7049 115.347 86.4983 115.14 87.3383 115.14C88.1249 115.14 88.8116 115.307 89.3983 115.64C89.9849 115.973 90.4383 116.44 90.7583 117.04C91.0916 117.64 91.2583 118.347 91.2583 119.16C91.2583 119.587 91.2183 119.953 91.1383 120.26H85.0183C85.0716 121.407 85.3716 122.267 85.9183 122.84C86.4783 123.413 87.1783 123.7 88.0183 123.7C88.6049 123.7 89.0983 123.587 89.4983 123.36C89.9116 123.12 90.2849 122.813 90.6183 122.44L91.1983 122.96C90.8116 123.693 90.2783 124.267 89.5983 124.68C88.9316 125.08 88.1316 125.28 87.1983 125.28Z" fill="#4B70F5"/>
<path d="M19.0255 94.9999L6 85.8157C6 85.8157 8.01406 80.9365 8.54156 79.7885C12.4883 71.1988 13.6247 65.438 13.6247 65.438C13.6247 65.438 16.679 67.7846 19.0255 68.5951C21.5986 69.4839 26.0148 69.4562 26.0148 69.4562C26.0148 69.4562 22.1674 53.157 26.0148 47.9305C29.0798 43.7669 34.6153 43.7006 40.3098 43.6324H40.3099C42.4466 43.6069 44.6057 43.581 46.665 43.3384C50.9529 42.8331 54.757 41.9624 58.1021 40.8785C63.1388 39.2463 67.1349 37.1307 70.1745 35.0509C75.285 31.5541 77.6921 28.1586 77.7961 27.3326L77.7992 27.2659C77.8002 27.2858 77.7991 27.3081 77.7961 27.3326C77.7548 28.2098 77.3341 37.5128 77.7992 42.1903C77.9412 43.6181 78.2837 45.1374 78.7523 46.6927C79.8036 50.1818 81.4899 53.8522 82.9714 57.077C83.1109 57.3807 83.2486 57.6805 83.3839 57.9758C85.6404 62.9044 87.1958 66.5861 84.7885 66.5861C83.3975 66.5861 82.3805 66.5042 81.5917 66.4407C79.6783 66.2866 79.1079 66.2407 77.7992 67.7341C77.0332 68.6083 77.9766 69.7472 78.7113 70.634C79.3798 71.441 79.8754 72.0392 78.7523 72.0392C77.1638 72.0392 79.3877 74.9093 79.3877 74.9093C78.4273 76.6446 78.9317 77.2591 79.5079 77.961C79.8847 78.4201 80.2922 78.9166 80.3408 79.7885C80.6265 84.9159 74.2688 87.5377 68.586 87.5377C65.5383 87.5377 62.5696 87.152 59.6906 86.6387C58.0469 86.3457 56.4325 86.0111 54.8492 85.683L54.8491 85.683L54.8488 85.6829C54.1264 85.5332 53.4105 85.3848 52.7013 85.2423C45.4839 83.7926 38.9584 82.9548 33.3218 87.5377L19.0255 94.9999Z" fill="url(#paint0_linear_2087_708)"/>
<path d="M24.1086 68.0211C24.1086 68.0211 19.7868 67.446 17.7547 66.299C14.5777 64.5059 14.3236 64.003 13.9423 63.429C13.5611 62.8549 12.0362 60.8459 12.0362 52.8096C12.0361 40.4683 12.0362 22.9607 12.0362 22.9607H32.6864V42.4773C32.6864 42.4773 27.7995 43.5493 25.6971 46.2084C22.5201 50.2266 22.7744 53.6707 22.8378 56.5407C22.9303 60.7277 24.1086 68.0211 24.1086 68.0211Z" fill="#4B70F5"/>
<path d="M34.1132 42.0737V11.4804H54.2897V40.1812C54.2897 40.1812 49.2066 42.0737 42.5349 42.0737H34.1132Z" fill="#4C3BCF"/>
<path d="M55.8782 40.0119V0H78.1169C78.1169 0 77.7992 21.2387 77.7992 24.1087C77.7992 26.9788 72.716 32.0894 66.6798 35.5335C62.0585 38.1703 55.8782 40.0119 55.8782 40.0119Z" fill="#402E7A"/>
<defs>
<linearGradient id="paint0_linear_2087_708" x1="73.3515" y1="35.3021" x2="14.9312" y2="101.23" gradientUnits="userSpaceOnUse">
<stop stop-color="#3DC2EC"/>
<stop offset="1" stop-color="#0150C7"/>
</linearGradient>
</defs>
</svg>
